<?xml version="1.0" encoding="utf-8"?>
<!-- Uploaded to: SVG Repo, www.svgrepo.com, Generator: SVG Repo Mixer Tools -->
<svg width="800px" height="800px" viewBox="-1 0 20 20" xmlns="http://www.w3.org/2000/svg">
  <g id="user-7" transform="translate(-3 -2)">
    <path id="secondary" fill="#2ca9bc" d="M15.84,13.61a6,6,0,0,1-7.68,0A7,7,0,0,0,4,20a1,1,0,0,0,1,1H19a1,1,0,0,0,1-1,7,7,0,0,0-4.16-6.39Z"/>
    <path id="primary" d="M8,13.7A7,7,0,0,0,4,20a1,1,0,0,0,1,1H19a1,1,0,0,0,1-1,7,7,0,0,0-4-6.33" fill="none" stroke="#000000" stroke-linecap="round" stroke-linejoin="round" stroke-width="2"/>
    <circle id="primary-2" data-name="primary" cx="6" cy="6" r="6" transform="translate(6 3)" fill="none" stroke="#000000" stroke-linecap="round" stroke-linejoin="round" stroke-width="2"/>
  </g>
</svg>