<svg width="150" height="150" viewBox="0 0 150 150" fill="none" xmlns="http://www.w3.org/2000/svg">
<path d="M145.571 72.2956V77.4226C145.571 79.3753 144.686 81.3284 142.914 82.8625C122.385 100.649 101.847 118.428 81.3191 136.215C79.5886 137.714 77.5379 138.486 75.1002 138.486V133.359C77.5383 133.359 79.5886 132.588 81.3191 131.088C101.848 113.301 122.384 95.5213 142.914 77.7359C144.686 76.2015 145.571 74.2491 145.571 72.2956Z" fill="#48BDC5"/>
<path d="M4.42957 77.3975V76.8848V76.6285V76.1158V75.6031V75.3467V74.834V74.3213V74.065V73.5523V73.0396V72.7833V72.2706C4.42957 74.4249 5.41116 76.5645 7.21819 78.1327C27.4987 95.7202 47.8015 113.288 68.0915 130.87C69.9961 132.519 72.3015 133.282 75.1012 133.359V138.486C72.3022 138.409 69.9961 137.646 68.0915 135.997C47.8015 118.415 27.4988 100.847 7.21819 83.2597C5.41101 81.6916 4.42957 79.5519 4.42957 77.3975Z" fill="#48BDC5"/>
<path d="M74.8222 11.2208C77.2045 11.2208 79.5897 12.0063 81.4061 13.5788C101.906 31.3309 122.407 49.0831 142.903 66.8385C146.454 69.9139 146.462 74.6626 142.914 77.7363C122.385 95.5226 101.848 113.302 81.3195 131.089C79.589 132.588 77.5383 133.359 75.1011 133.359C72.302 133.282 69.9957 132.519 68.0913 130.87C47.8014 113.288 27.4987 95.7202 7.21808 78.1327C4.34977 75.6444 3.56183 71.7152 5.47564 68.5744C6.04972 67.6314 6.74552 66.8417 7.59454 66.1063C27.8254 48.5938 48.0504 31.0769 68.2774 13.5596C70.0786 12.0011 72.449 11.2208 74.8222 11.2208Z" fill="#84CEE2"/>
<path d="M92.1038 67.7181C92.7654 68.1097 93.2392 68.5604 93.2327 69.3467C93.2099 70.1807 92.6648 70.58 92.0301 70.9572C87.4999 73.6399 82.9639 76.3137 78.4306 78.9914C75.1968 80.9008 71.9648 82.811 68.7313 84.7176C68.2606 84.9806 67.8405 85.0985 67.4383 85.1061C66.8513 85.1001 66.365 84.9078 65.9878 84.5233C65.6749 84.179 65.5555 83.7382 65.5536 83.3684C65.539 80.433 65.5363 77.4974 65.5363 74.562C65.5363 72.801 65.5376 71.0395 65.5376 69.278C65.5376 66.9579 65.5415 64.6378 65.5415 62.318C65.5415 59.9978 65.5376 57.6781 65.5212 55.3578C65.525 54.5887 65.7896 54.0104 66.5222 53.716C66.8213 53.5995 67.1003 53.5421 67.3807 53.5351C67.8908 53.5418 68.3043 53.6581 68.6989 53.8913C76.498 58.5032 84.3032 63.1081 92.1038 67.7181ZM69.3397 80.2499C75.5531 76.581 81.6824 72.9623 87.854 69.3164C81.6836 65.6733 75.5542 62.0533 69.3395 58.3846L69.3397 80.2499Z" fill="#76CADD"/>
<path d="M65.5364 77.1466V74.6857C65.5364 77.5799 65.5393 80.4746 65.5537 83.3684C65.5554 83.738 65.6748 84.179 65.9878 84.5233V86.9845C65.675 86.64 65.5556 86.1992 65.5537 85.8293C65.5392 82.9352 65.5364 80.041 65.5364 77.1466Z" fill="#6199CF"/>
<path d="M65.9878 84.5232V86.9842C65.675 86.6399 65.5556 86.1992 65.5537 85.8294C65.5392 82.9352 65.5364 80.0407 65.5364 77.1466V74.6858C65.5364 77.58 65.5393 80.4746 65.5537 83.3687C65.5554 83.7379 65.675 84.1792 65.9878 84.5232Z" fill="#6199CF"/>
<path d="M68.7314 84.7175V87.1784C68.2607 87.4414 67.8406 87.5594 67.4384 87.5669V85.106C67.8406 85.0982 68.2607 84.9804 68.7314 84.7175Z" fill="#6199CF"/>
<path d="M68.7314 84.7175V87.1784C68.5712 87.2693 68.404 87.3473 68.2314 87.4116V84.9507C68.3926 84.8911 68.5583 84.8142 68.7314 84.7175Z" fill="#6199CF"/>
<path d="M68.2315 84.9504V87.4113C68.0595 87.4755 67.881 87.5207 67.6992 87.5464V85.0852C67.8811 85.0598 68.0596 85.0146 68.2315 84.9504Z" fill="#6199CF"/>
<path d="M67.6994 85.0854V87.5465C67.6111 87.5587 67.5243 87.5656 67.4384 87.5672V85.1063C67.5243 85.1042 67.6112 85.0975 67.6994 85.0854Z" fill="#6199CF"/>
<path d="M67.4383 85.1058V87.5667C66.8513 87.5607 66.365 87.3684 65.9878 86.9839V84.5229C66.365 84.9078 66.8513 85.0998 67.4383 85.1058Z" fill="#6199CF"/>
<path d="M67.4383 85.1058V87.5667C66.8513 87.5607 66.365 87.3684 65.9878 86.9839V84.5229C66.365 84.9078 66.8513 85.0998 67.4383 85.1058Z" fill="#6199CF"/>
<path d="M74.9576 43.6919C91.5174 43.7086 104.415 55.0701 104.669 69.3129C104.666 69.493 104.661 69.673 104.653 69.853C104.643 70.1166 104.628 70.38 104.609 70.6431C103.607 84.265 91.0038 94.8974 75.1271 94.9415C58.535 94.9251 45.4381 83.5633 45.4381 69.3207C45.4369 55.0578 58.5496 43.7224 74.9576 43.6919ZM93.2317 69.3844C93.2387 68.5605 92.7652 68.1097 92.1038 67.7181C84.3032 63.108 76.4979 58.5035 68.6992 53.8912C68.3048 53.658 67.8912 53.5415 67.479 53.5345C67.1007 53.5419 66.8219 53.5992 66.5506 53.705C65.7902 54.0105 65.5252 54.5889 65.5214 55.3229C65.5378 57.6782 65.5416 59.9981 65.5416 62.318C65.5416 64.6377 65.5378 66.9579 65.5378 69.2782C65.5378 71.0394 65.5365 72.801 65.5365 74.562C65.5365 77.4974 65.5394 80.433 65.5539 83.3684C65.5557 83.7381 65.6751 84.179 65.9289 84.4604C66.3653 84.9079 66.8513 85.0997 67.3706 85.1061C67.8407 85.0981 68.2607 84.9806 68.6638 84.7559C71.9653 82.811 75.1973 80.9004 78.4309 78.9911C82.964 76.3135 87.5002 73.6399 92.0304 70.9567C92.665 70.58 93.2099 70.1808 93.2317 69.3844Z" fill="#B8E0E8"/>
<path d="M104.669 69.3126V71.7736C104.666 71.9537 104.661 72.1338 104.654 72.3138C104.643 72.5782 104.628 72.8411 104.609 73.1036C103.607 86.7258 91.0041 97.3582 75.1273 97.4019C58.5353 97.3858 45.4382 86.0239 45.4382 71.7812V69.3201C45.4382 83.5628 58.5353 94.9244 75.1273 94.9408C91.0041 94.8967 103.607 84.2643 104.609 70.6424C104.641 70.1998 104.662 69.7564 104.669 69.3126Z" fill="#6199CF"/>
<path d="M104.669 69.3126V71.7736C104.663 72.112 104.65 72.4503 104.63 72.7883V70.3272C104.65 69.9893 104.663 69.651 104.669 69.3126ZM104.63 70.3275V72.7886C104.624 72.8942 104.617 72.9989 104.609 73.1036C104.226 78.306 102.152 83.0725 98.8488 86.9794V84.5183C102.152 80.6114 104.226 75.8449 104.609 70.6427C104.617 70.538 104.624 70.4328 104.63 70.3275Z" fill="#6199CF"/>
<path d="M98.8489 84.5182V86.9793C97.0834 89.068 94.9669 90.911 92.5702 92.4438V89.9828C94.9669 88.4496 97.0834 86.6065 98.8489 84.5182ZM92.5699 89.9821V92.443C90.7441 93.611 88.7556 94.5987 86.6355 95.3777V92.9165C88.7556 92.1376 90.7441 91.1502 92.5699 89.9821Z" fill="#6199CF"/>
<path d="M86.6358 92.9168V95.378C84.4664 96.1749 82.1597 96.7541 79.749 97.0834V94.6223C82.1597 94.2929 84.4664 93.7138 86.6358 92.9168ZM79.749 94.622V97.0831C78.2172 97.2917 76.6732 97.3982 75.1273 97.4019C58.5353 97.3857 45.4382 86.0238 45.4382 71.7812V69.3201C45.4382 83.5627 58.5353 94.9244 75.1273 94.9408C76.7028 94.9364 78.2459 94.8277 79.749 94.622Z" fill="#6199CF"/>
<path d="M75.0385 40.3389C93.3545 40.3888 108.687 53.4768 108.432 69.3318C108.672 85.1591 93.3363 98.2938 75.0212 98.2938C56.7124 98.2724 41.5254 85.1498 41.5655 69.2436C41.6067 53.4732 56.7007 40.3389 75.0385 40.3389ZM104.654 69.8527C104.661 69.6728 104.667 69.4932 104.669 69.3125C104.416 55.0698 91.5174 43.7082 75.0552 43.6915C58.5482 43.7209 45.4369 55.0567 45.4387 69.3201C45.4387 83.5627 58.5353 94.9244 74.9981 94.9411C91.0056 94.8981 103.607 84.2656 104.609 70.6425C104.628 70.3805 104.643 70.1172 104.654 69.8527Z" fill="#65C4E2"/>
<path d="M69.3397 58.3844C75.5546 62.0531 81.6837 65.6733 87.8541 69.3163C81.6829 72.9613 75.5114 76.6057 69.3396 80.2497L69.3397 58.3844Z" fill="#C4E6EC"/>
<path d="M108.432 69.3318V71.7927C108.672 87.6204 93.3363 100.755 75.0212 100.755C56.7124 100.733 41.5254 87.6107 41.5655 71.7045V69.2436C41.5258 85.15 56.7123 98.2725 75.0212 98.2938C93.3363 98.2941 108.672 85.1593 108.432 69.3318Z" fill="#6199CF"/>
<path d="M108.432 69.3318V71.7927C108.441 72.4163 108.427 73.0356 108.388 73.6504V71.1895C108.426 70.5747 108.441 69.9555 108.432 69.3318ZM108.388 71.1894V73.6504C108.04 79.2664 105.737 84.4802 102.068 88.8042V86.3432C105.737 82.0189 108.04 76.8053 108.388 71.1894ZM102.067 86.3432V88.8042C100.043 91.1899 97.6022 93.3048 94.8438 95.0672V92.6063C97.6022 90.8438 100.043 88.7288 102.067 86.3432Z" fill="#6199CF"/>
<path d="M94.844 92.606V95.0669C92.723 96.4222 90.4147 97.5684 87.9632 98.4696V96.0086C90.4144 95.1078 92.723 93.9614 94.844 92.606ZM87.9632 96.0086V98.4696C85.4918 99.3778 82.8756 100.036 80.1598 100.407V97.9459C82.8756 97.5753 85.4918 96.9168 87.9632 96.0086Z" fill="#6199CF"/>
<path d="M80.16 97.9462V100.407C78.4569 100.639 76.7401 100.755 75.0212 100.755C56.7124 100.733 41.5254 87.6107 41.5655 71.7045V69.2436C41.5258 85.15 56.7123 98.2725 75.0212 98.2938C76.7644 98.2941 78.4813 98.1751 80.16 97.9462Z" fill="#6199CF"/>
</svg>
