<?xml version="1.0" encoding="iso-8859-1"?>
<!-- Uploaded to: SVG Repo, www.svgrepo.com, Generator: SVG Repo Mixer Tools -->
<svg height="800px" width="800px" version="1.1" id="Layer_1" xmlns="http://www.w3.org/2000/svg" xmlns:xlink="http://www.w3.org/1999/xlink" 
	 viewBox="0 0 416.008 416.008" xml:space="preserve">
<g transform="translate(0 -1020.36)" shape-rendering="auto" image-rendering="auto" color-rendering="auto" color-interpolation="sRGB">
	<g>
		<path style="fill:#5A3392;" d="M95.961,1020.401L95.961,1020.401c-4.419-0.017-8.014,3.552-8.031,7.971c0,0.019,0,0.038,0,0.058
			v150.938c0,18.49,8.624,33.322,17.625,45.721c9.579,13.191,23.585,20.633,35.906,27.875c12.321,7.24,22.677,14.094,27.875,23.969
			c6.312,11.992,8.962,28.738,3.875,39.094c-6.061,12.34-20.865,18.939-39.313,24.342c-3.414,0.986-5.768,4.105-5.781,7.658v27.219
			c-20.014,6.135-36.366,22.512-43,44.25l-5.094,16.873h10.75h245.187l-5.187-16.873c-6.617-21.684-22.837-38.047-42.75-44.217
			v-26.877c-0.009-3.326-2.074-6.299-5.187-7.469c-0.911-0.33-1.874-0.494-2.843-0.48c-15.446-0.014-30.485-10.805-36.844-23.625
			c-5.38-10.846-2.714-28.27,3.875-40.748c5.132-9.721,15.551-16.396,27.781-23.5c12.23-7.104,26.128-14.465,35.656-27.531
			c9.04-12.395,17.469-27.207,17.469-45.688v-150.968c0.018-4.395-3.512-7.98-7.906-8.032H95.962L95.961,1020.401z"/>
		<path style="fill:#29A3EC;" d="M103.993,1036.495h208v142.906c0,13.596-6.265,25.039-14.531,36.377
			c-6.668,9.143-18.3,15.639-30.812,22.906c-12.512,7.27-26.079,15.414-33.781,30.002c-8.404,15.916-12.92,37.357-4.031,55.279
			c7.984,16.096,24.125,28.971,43.125,31.875v-1.873l5.187,2.002l2.844,0.48c-2.729-0.002-5.4-0.24-8.031-0.623v16.656
			l-127.781-0.367v-20.313c17.211-5.588,35.034-11.924,43.344-28.844c8.553-17.414,4.068-38.113-4.031-53.5
			c-7.744-14.713-21.305-22.938-33.906-30.344c-12.602-7.406-24.41-14.084-31.156-23.375c-8.255-11.369-14.437-22.818-14.437-36.406
			V1036.46L103.993,1036.495z"/>
		<path style="fill:#EE746C;" d="M145.336,1388.464h125.313c18.041,0,32.313,14.031,40.281,31.998H105.087
			C113.054,1402.495,127.296,1388.464,145.336,1388.464z"/>
		<path style="fill:#3CDEF6;" d="M111.417,1048.487h193.151v132.703c0,12.623-5.818,23.252-13.494,33.779
			c-6.192,8.49-16.994,14.521-28.613,21.27s-24.217,14.314-31.37,27.859c-7.804,14.779-11.997,34.691-3.743,51.334
			c7.414,14.947,22.403,26.902,40.046,29.6v-1.742l4.817,1.857l2.641,0.416c-2.534-0.002-5.014-0.24-7.458-0.607v15.467
			l-118.659-0.367v-18.863c15.982-5.189,32.533-11.07,40.249-26.783c7.942-16.172,3.778-35.395-3.743-49.682
			c-7.191-13.664-19.784-21.301-31.486-28.18c-11.702-6.877-22.667-13.076-28.932-21.705c-7.666-10.557-13.407-21.189-13.407-33.807
			V1048.36L111.417,1048.487z"/>
	</g>
	<path style="fill:#FFFFFF;" d="M207.945,1084.444c35.441,0,64.016,28.574,64.016,64.016c0,35.441-28.575,64.016-64.016,64.016
		s-64.016-28.574-64.016-64.016C143.929,1113.018,172.504,1084.444,207.945,1084.444z"/>
	<path style="fill:#EBFEFF;" d="M207.945,1096.46c28.789,0,52,23.211,52,52c0,28.789-23.211,52-52,52s-52-23.211-52-52
		C155.945,1119.671,179.156,1096.46,207.945,1096.46L207.945,1096.46z"/>
	<path style="fill:#5A3392;" d="M206.764,1108.655c-2.58,0.352-4.827,1.939-6.024,4.252l-8.504,16.418l-18.071,3.895
		c-4.323,0.912-7.088,5.158-6.175,9.48c0.295,1.398,0.959,2.691,1.923,3.746l12.402,13.703l-2.008,19.369
		c-0.428,4.398,2.79,8.311,7.188,8.738c1.511,0.146,3.032-0.139,4.386-0.824l16.063-7.914l16.772,7.795
		c3.999,1.881,8.765,0.162,10.645-3.836c0.649-1.381,0.89-2.918,0.694-4.432l-2.481-18.662l12.638-14.41
		c2.895-3.338,2.534-8.393-0.804-11.287c-1.081-0.938-2.394-1.566-3.802-1.824l-17.48-3.422l-9.331-16.652
		c-1.568-2.902-4.757-4.545-8.031-4.137L206.764,1108.655z"/>
	<path style="fill:#FB9761;" d="M208.063,1133.46l3.897,7.086c1.156,2.029,3.14,3.451,5.433,3.895l7.559,1.408l-5.787,6.732
		c-1.493,1.723-2.18,4-1.89,6.26l0.945,7.797l-7.087-3.309c-2.192-0.977-4.706-0.918-6.85,0.16l-6.496,3.307l0.827-8.623
		c0.224-2.238-0.505-4.467-2.008-6.141l-5.551-6.023l8.15-1.771c2.338-0.498,4.331-2.016,5.433-4.137l3.425-6.615L208.063,1133.46z"
		/>
	<g>
		<g>
			<path style="fill:#5A3392;" d="M23.929,1052.434c-4.396,0.049-7.93,3.635-7.913,8.031v79.961c0.01,2.656,1.337,5.135,3.543,6.615
				l71.811,47.951c3.539,2.646,8.553,1.922,11.199-1.617c2.646-3.539,1.921-8.553-1.618-11.199c-0.195-0.146-0.397-0.283-0.604-0.41
				l-68.386-45.59v-67.678h60c4.436-0.045,7.996-3.676,7.951-8.111c-0.043-4.373-3.578-7.908-7.951-7.951H23.929L23.929,1052.434z"
				/>
			<path style="fill:#5A3392;" d="M323.22,1052.434c-4.437,0.152-7.912,3.871-7.76,8.309c0.152,4.438,3.872,7.912,8.309,7.762
				c0.053-0.002,0.107-0.006,0.16-0.008h60v67.678l-68.268,45.59c-3.902,2.074-5.385,6.918-3.311,10.82
				c2.073,3.9,6.917,5.385,10.819,3.311c0.48-0.254,0.932-0.559,1.35-0.904l71.929-47.951c2.206-1.48,3.534-3.959,3.543-6.615
				v-79.961c0.017-4.418-3.552-8.014-7.97-8.031c-0.02,0-0.041,0-0.061,0h-68.031c-0.236-0.01-0.473-0.01-0.709,0L323.22,1052.434z"
				/>
		</g>
		<path style="fill:#FB9761;" d="M155.118,1390.964c-15.222,0-27.215,11.84-33.937,27h23.844l10.156-27h-0.064H155.118z
			 M169.555,1390.964l-10.188,27h5.813l10.156-27H169.555z M189.68,1390.964l-10.156,27h115.312c-6.723-15.16-18.747-27-33.969-27
			H189.68L189.68,1390.964z"/>
		<path style="fill:#5A3392;" d="M96.024,1020.388c-4.443-0.016-8.049,3.587-8.032,8.032v150.945
			c0,18.488,8.597,33.43,17.598,45.826c9.579,13.193,23.584,20.516,35.906,27.756c12.321,7.242,22.794,14.217,27.992,24.094
			c6.312,11.992,8.866,28.619,3.78,38.977c-6.06,12.34-20.883,18.926-39.331,24.332c-3.423,0.992-5.782,4.119-5.787,7.678v32.008
			c-0.018,4.445,3.589,8.049,8.031,8.031l143.858,0.367c4.443,0,8.049-3.586,8.032-8.031v-32.008
			c-0.022-3.32-2.089-6.279-5.197-7.441c-0.908-0.305-1.868-0.48-2.834-0.48c-15.446-0.014-30.491-10.801-36.85-23.623
			c-5.38-10.846-2.692-28.15,3.897-40.631c5.132-9.721,15.526-16.518,27.756-23.623c12.23-7.102,26.141-14.334,35.669-27.402
			c9.04-12.395,17.48-27.344,17.48-45.826v-150.945c0.018-4.396-3.517-7.984-7.913-8.032H96.025L96.024,1020.388z M104.056,1036.452
			h207.992v142.914c0,13.594-6.143,25.041-14.409,36.377c-6.668,9.143-18.315,15.764-30.827,23.031s-26.077,15.295-33.779,29.881
			c-8.404,15.916-13.023,37.473-4.134,55.395c9.09,18.324,17.885,24.73,43.142,32.174l-0.146,0.006l0.115-2.322v18.545
			l-127.795-0.367v-20.314c17.215-5.588,35.153-11.896,43.465-28.818c8.553-17.414,4.083-37.998-4.016-53.385
			c-7.744-14.713-21.414-23.066-34.016-30.473c-12.602-7.406-24.434-14.094-31.181-23.385
			c-8.255-11.369-14.409-22.793-14.409-36.377v-142.914L104.056,1036.452z"/>
	</g>
	<path style="fill:#5A3392;" d="M208.129,1068.473c-9.482,0-19.094,1.635-28.406,5.156c-37.25,14.084-58.518,53.59-49.75,92.438
		c0.801,4.346,4.974,7.219,9.319,6.418c4.345-0.803,7.219-4.975,6.417-9.32c-0.039-0.211-0.087-0.422-0.143-0.629
		c-7.038-31.182,9.912-62.631,39.813-73.938c29.901-11.307,63.394,1.088,78.75,29.125c15.356,28.039,7.755,62.957-17.875,82.063
		s-61.265,16.412-83.75-6.313c-3.045-3.201-8.109-3.328-11.311-0.283s-3.329,8.109-0.284,11.311c0.072,0.076,0.145,0.15,0.22,0.223
		c28.011,28.309,72.759,31.678,104.688,7.875c31.929-23.801,41.473-67.633,22.344-102.563
		C263.813,1083.84,236.576,1068.546,208.129,1068.473z"/>
</g>
</svg>