<?xml version="1.0" encoding="iso-8859-1"?>
<!-- Uploaded to: SVG Repo, www.svgrepo.com, Generator: SVG Repo Mixer Tools -->
<svg height="800px" width="800px" version="1.1" id="Layer_1" xmlns="http://www.w3.org/2000/svg" xmlns:xlink="http://www.w3.org/1999/xlink" 
	 viewBox="0 0 403.337 403.337" xml:space="preserve">
<g>
	<path style="fill:#666666;" d="M399.161,273.046c5.56-24.47,5.56-49.93,0.01-74.41h-26.09c-3.14-11.61-7.75-22.89-13.88-33.55
		l18.44-18.44c-6.53-10.4-14.32-20.2-23.37-29.25c-5.09-5.09-10.42-9.79-15.96-14.08c-4.31-3.33-8.73-6.43-13.28-9.29l-18.45,18.44
		c-5.05-2.9-10.23-5.46-15.52-7.69c-5.88-2.47-11.91-4.53-18.02-6.18v-26.09c-14.89-3.39-30.17-4.71-45.36-3.97
		c-9.76,0.47-19.48,1.8-29.04,3.98v26.08c-3.39,0.91-6.76,1.95-10.08,3.13c-8.07,2.83-15.93,6.41-23.48,10.74l-18.44-18.44
		c-10.39,6.54-20.2,14.32-29.24,23.37c-9.05,9.05-16.84,18.85-23.37,29.25l18.44,18.44c-4.34,7.55-7.92,15.41-10.75,23.48
		c-1.17,3.32-2.21,6.69-3.13,10.07h-26.07c-2.18,9.57-3.51,19.28-3.98,29.04c-0.74,15.19,0.58,30.47,3.97,45.37h26.08
		c3.14,11.6,7.76,22.88,13.88,33.54l-18.44,18.44c6.53,10.4,14.32,20.2,23.37,29.25c2.31,2.31,4.67,4.53,7.07,6.68
		c7.02,6.26,14.43,11.82,22.17,16.69l5.05-5.05l13.39-13.39c9.68,5.55,19.86,9.87,30.34,12.96c1.07,0.32,2.14,0.62,3.22,0.91v26.1
		c24.47,5.55,49.94,5.55,74.4-0.01v-26.09c11.61-3.13,22.89-7.75,33.54-13.87l18.45,18.44c10.39-6.54,20.2-14.32,29.24-23.37
		c9.05-9.05,16.84-18.85,23.37-29.25l-18.44-18.44c6.12-10.66,10.74-21.94,13.87-33.54H399.161z M296.911,296.916
		c-20.4,20.4-48.46,28.46-74.92,24.19c-12.67-2.04-24.97-6.92-35.89-14.63c-3.98-2.81-7.78-6-11.34-9.56
		c-3.93-3.93-7.41-8.14-10.42-12.58c-22.86-33.61-19.39-79.78,10.42-109.58c16.54-16.53,38.1-24.97,59.77-25.29
		c10.37-0.15,20.75,1.55,30.62,5.1c11.6,4.17,22.47,10.9,31.76,20.19c0.28,0.28,0.55,0.55,0.81,0.83
		C330.651,209.376,330.371,263.466,296.911,296.916z"/>
	<path style="fill:#999999;" d="M188.561,101.726c-8.07,2.83-15.93,6.41-23.48,10.74l-18.44-18.44
		c-10.39,6.54-20.2,14.32-29.24,23.37c-9.05,9.05-16.84,18.85-23.37,29.25l18.44,18.44c-4.34,7.55-7.92,15.41-10.75,23.48
		c-7.4-3.21-14.34-7.84-20.39-13.89c-25.78-25.78-25.78-67.57-0.01-93.35c25.78-25.78,67.57-25.78,93.35,0
		C180.731,87.386,185.361,94.316,188.561,101.726z"/>
	<path style="fill:#B3B3B3;" d="M236.371,59.836l-8.69,8.7c-9.76,0.47-19.48,1.8-29.04,3.98v26.08c-3.39,0.91-6.76,1.95-10.08,3.13
		c-3.2-7.41-7.83-14.34-13.89-20.4c-22.09-22.09-55.95-25.25-81.4-9.48c-4.25,2.64-8.26,5.79-11.95,9.48
		c-13.83,13.84-20.24,32.29-19.22,50.41c0.88,15.62,7.29,31,19.23,42.94c6.05,6.05,12.99,10.68,20.39,13.89
		c-1.17,3.32-2.21,6.69-3.13,10.07h-26.07c-2.18,9.57-3.51,19.28-3.98,29.04l-8.7,8.69c-7.94-5-15.43-10.94-22.34-17.86
		c-4.71-4.71-8.97-9.68-12.79-14.89c-1.79-2.43-3.48-4.92-5.08-7.45l14.1-14.1c-4.68-8.14-8.21-16.76-10.6-25.63H3.191
		c-4.25-18.7-4.25-38.18,0.01-56.86h19.92c2.4-8.87,5.93-17.49,10.61-25.64l-14.1-14.1c5-7.94,10.95-15.43,17.86-22.34
		c6.91-6.92,14.41-12.87,22.35-17.87l14.1,14.1c8.15-4.68,16.77-8.21,25.63-10.6V3.196c10.21-2.33,20.66-3.38,31.08-3.17
		c8.66,0.18,17.3,1.24,25.78,3.17l0.01,19.93c8.86,2.4,17.48,5.93,25.63,10.6l14.09-14.09c7.94,4.99,15.43,10.94,22.35,17.86
		C225.421,44.406,231.371,51.896,236.371,59.836z"/>
	<path style="fill:#999999;" d="M296.911,174.756c33.74,33.73,33.74,88.43,0,122.16c-33.73,33.73-88.42,33.73-122.15,0
		c-33.74-33.73-33.74-88.43,0-122.16C208.491,141.026,263.181,141.026,296.911,174.756z M257.001,256.996
		c11.69-11.69,11.69-30.64,0-42.32c-11.69-11.69-30.64-11.69-42.33,0c-11.69,11.68-11.69,30.63,0,42.32
		C226.361,268.686,245.311,268.686,257.001,256.996z"/>
	<path style="fill:#666666;" d="M235.836,306.214c-18.798,0-36.47-7.32-49.762-20.611c-13.296-13.292-20.618-30.966-20.618-49.766
		s7.322-36.474,20.617-49.765c13.293-13.293,30.965-20.613,49.763-20.613s36.47,7.32,49.762,20.611
		c13.297,13.292,20.618,30.966,20.619,49.766c-0.001,18.8-7.322,36.474-20.617,49.765
		C272.306,298.894,254.634,306.214,235.836,306.214z M235.836,189.909c-12.269,0-23.803,4.778-32.479,13.455
		c-8.674,8.666-13.454,20.199-13.454,32.47c0,12.268,4.778,23.802,13.454,32.478c8.676,8.676,20.21,13.454,32.479,13.454
		s23.803-4.778,32.479-13.454c8.676-8.676,13.454-20.21,13.454-32.478c0-12.271-4.78-23.803-13.459-32.475
		C259.639,194.687,248.105,189.909,235.836,189.909z"/>
	<g style="opacity:0.23;">
		<path style="fill:#808080;" d="M82.947,183.465h-26.07c-2.18,9.57-3.51,19.28-3.98,29.04c-0.313,6.425-0.235,12.865,0.19,19.287
			c2.214,1.601,4.463,3.131,6.754,4.574l8.7-8.69c0.47-9.76,1.8-19.47,3.98-29.04h26.07c0.92-3.38,1.96-6.75,3.13-10.07
			c-6.089-2.641-11.857-6.26-17.083-10.824C84.038,179.643,83.468,181.551,82.947,183.465z"/>
		<path style="fill:#808080;" d="M188.561,101.726c3.32-1.18,6.69-2.22,10.08-3.13v-26.08c9.56-2.18,19.28-3.51,29.04-3.98l8.69-8.7
			c-1.327-2.107-2.725-4.18-4.186-6.221c-6.707-0.479-13.436-0.578-20.149-0.251c-9.76,0.47-19.48,1.8-29.04,3.98v26.08
			c-1.687,0.453-3.369,0.938-5.043,1.457C182.422,90.047,185.969,95.724,188.561,101.726z"/>
	</g>
	<g>
		<path style="fill:#808080;" d="M146.354,94.213l-15.358-15.358c-10.39,6.54-20.2,14.32-29.24,23.37
			c-9.05,9.05-16.84,18.85-23.37,29.25l18.44,18.44c-4.34,7.55-7.92,15.41-10.75,23.48c-0.507,1.44-0.979,2.892-1.439,4.348
			c5.227,4.564,10.995,8.183,17.083,10.824c2.83-8.07,6.41-15.93,10.75-23.48l-18.44-18.44c6.53-10.4,14.32-20.2,23.37-29.25
			C126.357,108.43,136.071,100.715,146.354,94.213z"/>
		<path style="fill:#808080;" d="M172.917,86.555c-7.962,2.792-15.719,6.318-23.177,10.571l15.341,15.341
			c7.55-4.33,15.41-7.91,23.48-10.74c-2.592-6.002-6.139-11.68-10.607-16.845C176.265,85.405,174.584,85.962,172.917,86.555z"/>
	</g>
	<g>
		<path style="opacity:0.23;fill:#F2F2F2;enable-background:new    ;" d="M373.071,273.046c-3.13,11.6-7.75,22.88-13.87,33.54
			l18.44,18.44c-6.53,10.4-14.32,20.2-23.37,29.25c-9.04,9.05-18.85,16.83-29.24,23.37l-18.45-18.44
			c-10.65,6.12-21.93,10.74-33.54,13.87v26.09c-24.46,5.56-49.93,5.56-74.4,0.01v-26.1c-1.08-0.29-2.15-0.59-3.22-0.91l26.57-51.06
			l75.73-145.52l37.6-72.27h2.99c5.54,4.29,10.87,8.99,15.96,14.08c9.05,9.05,16.84,18.85,23.37,29.25l-18.44,18.44
			c6.13,10.66,10.74,21.94,13.88,33.55h26.09c5.55,24.48,5.55,49.94-0.01,74.41L373.071,273.046L373.071,273.046z"/>
	</g>
	<g>
		<path style="opacity:0.23;fill:#F2F2F2;enable-background:new    ;" d="M130.651,0.026l-2.88,5.53l-34.5,66.29l-31.17,59.89
			l-10.06,19.34l-27.33,52.54c-1.79-2.43-3.48-4.92-5.08-7.45l14.1-14.1c-4.68-8.14-8.21-16.76-10.6-25.63H3.191
			c-4.25-18.7-4.25-38.18,0.01-56.86h19.92c2.4-8.87,5.93-17.49,10.61-25.64l-14.1-14.1c5-7.94,10.95-15.43,17.86-22.34
			c6.91-6.92,14.41-12.87,22.35-17.87l14.1,14.1c8.15-4.68,16.77-8.21,25.63-10.6V3.196C109.781,0.866,120.231-0.184,130.651,0.026z
			"/>
	</g>
	<g>
		<path style="opacity:0.23;fill:#F2F2F2;enable-background:new    ;" d="M291.061,104.776l-24.64,47.36l-1.27,2.43l-79.05,151.91
			l-17.34,33.32l-17.07,32.8l-5.05,5.05c-7.74-4.87-15.15-10.43-22.17-16.69l26.78-51.46l13.09-25.16l70.19-134.87l7.71-14.81
			l30.8-59.2v23.14C279.151,100.246,285.181,102.307,291.061,104.776z"/>
	</g>
</g>
</svg>