<?xml version="1.0" encoding="iso-8859-1"?>
<!-- Uploaded to: SVG Repo, www.svgrepo.com, Generator: SVG Repo Mixer Tools -->
<svg height="800px" width="800px" version="1.1" id="Capa_1" xmlns="http://www.w3.org/2000/svg" xmlns:xlink="http://www.w3.org/1999/xlink" 
	 viewBox="0 0 440.601 440.601" xml:space="preserve">
<g>
	<path style="fill:#BA8075;" d="M431.034,292.858c-1.902-3.177-6.476-9.706-13.333-12.57c0.365,4.665,1.581,11.704,5.316,18.443
		C425.427,298.59,428.525,297.355,431.034,292.858z"/>
	<path style="fill:#C9B64C;" d="M332.091,146.248c-2.207-3.767-8.081-12.41-17.099-15.655c0.323,5.524,1.663,14.605,6.552,23.221
		C324.654,153.768,328.837,152.341,332.091,146.248z"/>
	<path style="fill:#D394B9;" d="M65.048,253.865c-0.878,0.879-2.03,1.318-3.182,1.318c-1.151,0-2.303-0.439-3.182-1.318
		c-1.758-1.757-1.758-4.606-0.001-6.363h0.001c4.779-4.78,8.118-21.276,8.118-40.116c0-18.84-3.339-35.337-8.119-40.118
		c-1.757-1.758-1.757-4.606,0.001-6.364c1.758-1.756,4.606-1.757,6.364,0.001c8.962,8.966,53.567,10.992,73.735,3.579
		c-2.693-5.13-5.085-11.337-7.058-17.267c-1.362,4.301-3.313,8.837-6.114,13.254c-0.612,0.965-1.568,1.661-2.676,1.947
		c-0.257,0.066-1.64,0.396-3.664,0.396c-4.033,0-14.044-1.452-19.883-14.899c-0.316-0.73-0.405-1.519-0.319-2.292
		c-28.981,0.201-38.717,1.551-38.819,1.566c-0.821,0.115-1.669,0.009-2.431-0.32c-10.975-4.732-19.818-5.211-24.783-4.933
		c1.886,7.303,5.883,21.217,10.706,28.89c7.575,12.05,7.014,33.098,6.923,35.502c0.091,2.404,0.652,23.452-6.923,35.502
		c-4.83,7.684-8.824,21.591-10.708,28.89c4.956,0.271,13.803-0.2,24.785-4.933c0.794-0.342,1.671-0.448,2.521-0.306
		c0.085,0.014,10.238,1.577,44.823,1.577c8.396,0,18.248-0.092,24.706-0.224c1.659-5.522,3.765-11.774,6.208-17.438
		C114.547,243.017,73.418,245.496,65.048,253.865z"/>
	<path style="fill:#C9B64C;" d="M119.115,153.813c4.89-8.617,6.229-17.702,6.552-23.227c-9.066,3.238-14.909,11.88-17.104,15.654
		C111.818,152.34,116.003,153.768,119.115,153.813z"/>
	<path style="fill:#BA8075;" d="M431.033,156.496c-1.901-3.176-6.475-9.705-13.332-12.569c0.365,4.665,1.581,11.703,5.316,18.441
		C425.427,162.227,428.525,160.993,431.033,156.496z"/>
	<path style="fill:#BA8075;" d="M9.568,156.497c2.508,4.495,5.606,5.729,8.016,5.871c3.735-6.737,4.95-13.774,5.316-18.441
		C16.046,146.79,11.474,153.314,9.568,156.497z"/>
	<path style="fill:#C9B64C;" d="M108.563,304.475c3.255,6.1,7.439,7.527,10.552,7.573c4.891-8.617,6.229-17.701,6.552-23.228
		C116.6,292.059,110.758,300.7,108.563,304.475z"/>
	<path style="fill:#BA8075;" d="M9.568,292.858c2.508,4.498,5.607,5.732,8.017,5.873c3.767-6.78,4.976-13.801,5.332-18.45
		C16.054,283.141,11.475,289.674,9.568,292.858z"/>
	<path style="fill:#C9B64C;" d="M332.091,304.482c-2.207-3.767-8.081-12.41-17.099-15.655c0.323,5.524,1.662,14.605,6.551,23.221
		C324.654,312.002,328.837,310.576,332.091,304.482z"/>
	<path style="fill:#BA8075;" d="M301.877,240.789c16.898-4.986,47.967-5.69,66.994-0.034c-5.427-18.375-5.424-48.392,0.007-66.761
		c-18.503,5.545-48.69,5.387-66.783,0.054c5.11,17.493,5.366,47.101,0.338,65.511C302.31,240.008,302.115,240.416,301.877,240.789z"
		/>
	<path style="fill:#D394B9;" d="M382.782,146.869c-0.767,0.331-1.608,0.442-2.438,0.319c-0.095-0.015-9.818-1.362-38.755-1.564
		c0.087,0.773-0.003,1.562-0.319,2.291c-5.838,13.447-15.85,14.899-19.883,14.899c-2.025,0-3.408-0.33-3.665-0.396
		c-1.107-0.286-2.064-0.982-2.677-1.947c-2.801-4.416-4.751-8.952-6.113-13.252c-1.975,5.936-4.369,12.15-7.066,17.283
		c20.192,7.395,64.731,5.36,73.688-3.598c1.758-1.758,4.606-1.757,6.364-0.001c1.758,1.758,1.758,4.607,0.001,6.364
		c-4.78,4.781-8.119,21.278-8.119,40.118c0,18.84,3.339,35.336,8.118,40.116c0.001,0,0.001,0,0.001,0
		c1.757,1.757,1.757,4.606-0.001,6.363c-0.878,0.879-2.03,1.318-3.182,1.318c-1.151,0-2.303-0.439-3.182-1.318
		c-8.364-8.363-49.433-10.844-70.978-4.484c2.446,5.669,4.553,11.927,6.214,17.455c6.459,0.131,16.278,0.223,24.648,0.223
		c34.586,0,44.739-1.564,44.838-1.58c0.843-0.135,1.722-0.028,2.507,0.309c11.101,4.784,19.877,5.249,24.791,4.964
		c-1.883-7.294-5.885-21.237-10.715-28.921c-7.575-12.05-7.013-33.098-6.921-35.502c-0.092-2.404-0.654-23.452,6.921-35.502
		c4.823-7.674,8.821-21.589,10.707-28.892C402.611,141.663,393.764,142.135,382.782,146.869z"/>
	<path style="fill:#D394B9;" d="M295.498,228.892c2.32-14.486,2.057-33.12-0.641-46.586c-2.005,10.661-1.572,21.419-1.565,21.578
		c0.003,0.068-0.011,0.133-0.011,0.201c0,0.069,0.014,0.136,0.011,0.205C293.281,204.548,292.775,217.383,295.498,228.892z"/>
	<path style="fill:#BA8075;" d="M138.724,240.789c-0.237-0.373-0.433-0.781-0.555-1.23c-5.028-18.41-4.772-48.017,0.337-65.51
		c-18.092,5.334-48.28,5.491-66.781-0.054c5.43,18.369,5.433,48.386,0.005,66.761C90.756,235.098,121.822,235.803,138.724,240.789z"
		/>
	<path style="fill:#CCB683;" d="M284.293,204.086c-0.102-2.636-0.783-26.967,7.922-40.814c5.845-9.299,10.632-26.332,12.728-34.571
		c-5.657-0.425-16.432-0.105-29.96,5.726c-0.793,0.343-1.668,0.449-2.522,0.307c-0.102-0.017-11.885-1.841-52.133-1.841
		c-40.247,0-52.029,1.824-52.144,1.843c-0.842,0.137-1.723,0.029-2.509-0.308c-13.521-5.83-24.295-6.15-29.96-5.726
		c2.099,8.243,6.891,25.283,12.729,34.57c8.704,13.847,8.022,38.178,7.921,40.814c0.102,2.636,0.783,26.967-7.921,40.812
		c-5.839,9.288-10.631,26.33-12.729,34.572c5.653,0.428,16.432,0.107,29.96-5.725c0.793-0.342,1.667-0.449,2.521-0.306
		c0.102,0.017,11.884,1.841,52.131,1.841c40.248,0,52.031-1.824,52.146-1.843c0.839-0.139,1.723-0.03,2.509,0.308
		c13.655,5.887,24.355,6.195,29.966,5.753c-2.095-8.231-6.89-25.302-12.734-34.6C283.51,231.053,284.191,206.722,284.293,204.086z
		 M270.593,260.057c-0.005,0-0.013,0-0.02,0c-1.151,0-2.303-0.44-3.182-1.317c-5.672-5.672-25.024-9.633-47.062-9.633
		s-41.39,3.961-47.061,9.632c-1.756,1.758-4.605,1.758-6.363,0c-0.879-0.878-1.318-2.03-1.318-3.182
		c0-1.151,0.439-2.303,1.318-3.182c12.752-12.754,12.752-81.368-0.001-94.125c-0.879-0.879-1.317-2.03-1.317-3.183
		c0-1.151,0.439-2.303,1.318-3.182c1.759-1.757,4.607-1.756,6.364,0.001c5.67,5.673,25.022,9.635,47.06,9.635
		s41.39-3.962,47.061-9.635c1.758-1.758,4.607-1.757,6.364-0.001c0.879,0.879,1.318,2.03,1.318,3.183
		c0,1.151-0.44,2.303-1.317,3.182c-5.673,5.673-9.634,25.026-9.634,47.064c0,21.781,3.869,40.939,9.435,46.856
		c0.941,0.825,1.535,2.036,1.535,3.386C275.093,258.042,273.078,260.057,270.593,260.057z"/>
	<path style="fill:#C9B64C;" d="M220.329,170.521c-13.208,0-28.436-1.421-39.828-5.023c6.831,21.433,6.831,58.197,0,79.628
		c11.393-3.601,26.62-5.021,39.828-5.021c13.199,0,28.417,1.419,39.808,5.015c-3.597-11.391-5.015-26.607-5.015-39.807
		s1.419-28.418,5.015-39.809C248.746,169.103,233.528,170.521,220.329,170.521z"/>
	<path style="fill:#D394B9;" d="M145.775,182.16c-2.73,13.498-3.001,32.252-0.66,46.801c2.237-9.43,2.46-20.101,2.252-24.671
		c-0.003-0.069,0.012-0.136,0.012-0.204c0-0.068-0.015-0.135-0.012-0.204C147.377,203.644,147.804,192.83,145.775,182.16z"/>
	<path style="fill:#7C5F53;" d="M264.122,205.314c0-22.038,3.961-41.392,9.634-47.064c0.878-0.879,1.317-2.03,1.317-3.182
		c0-1.152-0.44-2.304-1.318-3.183c-1.758-1.756-4.606-1.757-6.364,0.001c-5.672,5.673-25.024,9.635-47.061,9.635
		s-41.39-3.962-47.06-9.635c-1.757-1.757-4.605-1.758-6.364-0.001c-0.879,0.879-1.318,2.03-1.318,3.182
		c0,1.152,0.438,2.304,1.317,3.183c12.753,12.757,12.753,81.371,0.001,94.125c-0.879,0.879-1.318,2.03-1.318,3.182
		c0,1.151,0.439,2.304,1.318,3.182c1.758,1.758,4.607,1.758,6.363,0c5.671-5.671,25.022-9.632,47.061-9.632
		s41.391,3.961,47.062,9.633c0.879,0.878,2.03,1.317,3.182,1.317c0.007,0,0.015,0,0.02,0c2.485,0,4.5-2.015,4.5-4.5
		c0-1.35-0.594-2.561-1.535-3.386C267.991,246.254,264.122,227.096,264.122,205.314z M260.137,245.121
		c-11.391-3.596-26.608-5.015-39.808-5.015c-13.208,0-28.436,1.42-39.828,5.021c6.831-21.431,6.831-58.195,0-79.628
		c11.393,3.602,26.62,5.023,39.828,5.023c13.199,0,28.417-1.419,39.808-5.016c-3.596,11.391-5.015,26.609-5.015,39.809
		S256.54,233.73,260.137,245.121z"/>
	<path style="fill:#7C5F53;" d="M411.788,159.262c1.145,3.221,2.682,6.555,4.748,9.812c0.612,0.966,1.568,1.662,2.676,1.947
		c0.328,0.085,1.538,0.361,3.312,0.361c3.599,0,12.526-1.288,17.705-13.214c0.516-1.188,0.494-2.542-0.059-3.714
		c-0.362-0.767-9.014-18.672-26.188-20.731c-2.261-0.538-15.408-3.12-33.628,4.401c-3.75-0.412-16.059-1.469-43.871-1.524
		c-4.761-6.373-13.123-14.631-25.139-16.054c-2.438-0.588-17.613-3.651-38.764,5.125c-4.085-0.491-18.057-1.779-52.253-1.779
		c-34.195,0-48.166,1.288-52.251,1.779c-21.147-8.774-36.324-5.713-38.765-5.125c-12.017,1.422-20.378,9.68-25.14,16.054
		c-27.852,0.055-40.176,1.112-43.927,1.524c-18.222-7.521-31.368-4.939-33.629-4.401c-17.174,2.06-25.825,19.965-26.188,20.731
		c-0.553,1.172-0.574,2.525-0.059,3.714c5.179,11.926,14.106,13.214,17.705,13.214c1.774,0,2.984-0.276,3.312-0.361
		c1.107-0.285,2.063-0.981,2.676-1.947c2.066-3.258,3.604-6.592,4.748-9.812c2.031,5.877,4.515,11.906,7.31,16.354
		c6.348,10.099,5.557,30.183,5.543,30.509c-0.003,0.069,0.011,0.136,0.011,0.205c0,0.068-0.014,0.133-0.011,0.201
		c0.009,0.202,0.824,20.381-5.543,30.511c-6.055,9.63-10.647,26.672-12.338,33.531C8.49,274.105,0.772,290.093,0.431,290.816
		c-0.553,1.172-0.574,2.525-0.059,3.714c5.178,11.928,14.107,13.216,17.706,13.216c1.773,0,2.983-0.276,3.312-0.361
		c1.106-0.285,2.063-0.982,2.677-1.947c6.03-9.51,7.575-19.669,7.905-25.762c1.011,0.07,2.139,0.116,3.386,0.116
		c6.002,0,14.635-1.032,24.867-5.251c3.759,0.441,15.924,1.518,44.939,1.518c7.466,0,15.823-0.068,22.174-0.175
		c-0.336,1.292-0.618,2.424-0.849,3.368c-17.693,3.816-26.647,22.352-27.041,23.184c-0.553,1.172-0.574,2.525-0.059,3.714
		c5.839,13.447,15.85,14.899,19.883,14.899c2.024,0,3.407-0.33,3.664-0.396c1.107-0.286,2.063-0.982,2.676-1.947
		c7.171-11.305,8.809-23.402,9.101-30.275c1.334,0.111,2.874,0.19,4.618,0.19c6.911,0,16.892-1.198,28.747-6.117
		c4.085,0.491,18.056,1.779,52.251,1.779c34.196,0,48.168-1.288,52.253-1.779c11.856,4.919,21.834,6.117,28.745,6.117
		c1.744,0,3.284-0.078,4.619-0.19c0.291,6.873,1.93,18.971,9.1,30.275c0.612,0.966,1.568,1.661,2.676,1.947
		c0.257,0.066,1.64,0.396,3.665,0.396c4.033,0,14.045-1.452,19.883-14.899c0.516-1.188,0.494-2.542-0.059-3.714
		c-0.394-0.832-9.35-19.367-27.042-23.184c-0.23-0.944-0.513-2.076-0.849-3.367c6.344,0.105,14.674,0.174,22.117,0.174
		c29.015,0,41.181-1.077,44.94-1.518c10.233,4.219,18.865,5.252,24.866,5.251c1.247,0,2.375-0.046,3.386-0.116
		c0.33,6.092,1.875,16.252,7.905,25.762c0.613,0.966,1.57,1.662,2.678,1.947c0.328,0.085,1.538,0.361,3.311,0.361h0.001
		c3.599,0,12.527-1.288,17.705-13.216c0.516-1.189,0.494-2.542-0.059-3.714c-0.342-0.724-8.06-16.711-23.355-20.244
		c-1.69-6.859-6.283-23.901-12.338-33.531c-6.367-10.13-5.551-30.309-5.542-30.511c0.003-0.069-0.012-0.134-0.012-0.203
		c0-0.067,0.015-0.133,0.012-0.201c-0.009-0.202-0.825-20.381,5.542-30.511C407.273,171.168,409.757,165.139,411.788,159.262z
		 M431.033,156.496c-2.508,4.497-5.606,5.73-8.016,5.872c-3.735-6.738-4.951-13.776-5.316-18.441
		C424.558,146.791,429.132,153.32,431.033,156.496z M17.584,162.368c-2.409-0.142-5.508-1.376-8.016-5.871
		c1.905-3.183,6.477-9.707,13.332-12.57C22.534,148.594,21.319,155.631,17.584,162.368z M17.585,298.731
		c-2.409-0.142-5.509-1.375-8.017-5.873c1.907-3.185,6.485-9.718,13.349-12.577C22.561,284.931,21.351,291.951,17.585,298.731z
		 M119.115,312.048c-3.112-0.046-7.297-1.474-10.552-7.573c2.194-3.774,8.037-12.416,17.104-15.654
		C125.344,294.347,124.006,303.431,119.115,312.048z M332.091,304.482c-3.254,6.094-7.436,7.52-10.548,7.565
		c-4.889-8.615-6.228-17.696-6.551-23.221C324.01,292.072,329.884,300.716,332.091,304.482z M431.034,292.858
		c-2.509,4.497-5.607,5.732-8.017,5.873c-3.735-6.739-4.951-13.778-5.316-18.443C424.558,283.152,429.132,289.682,431.034,292.858z
		 M332.091,146.248c-3.254,6.093-7.436,7.52-10.547,7.565c-4.889-8.615-6.229-17.696-6.552-23.221
		C324.01,133.838,329.884,142.481,332.091,146.248z M125.667,130.586c-0.323,5.525-1.662,14.61-6.552,23.227
		c-3.112-0.046-7.297-1.474-10.552-7.573C110.758,142.466,116.6,133.824,125.667,130.586z M129.87,266.835
		c-6.458,0.132-16.311,0.224-24.706,0.224c-34.585,0-44.738-1.564-44.823-1.577c-0.85-0.143-1.726-0.036-2.521,0.306
		c-10.982,4.732-19.829,5.203-24.785,4.933c1.884-7.299,5.878-21.206,10.708-28.89c7.575-12.05,7.014-33.098,6.923-35.502
		c0.091-2.404,0.652-23.452-6.923-35.502c-4.823-7.673-8.82-21.587-10.706-28.89c4.965-0.278,13.809,0.201,24.783,4.933
		c0.762,0.329,1.609,0.436,2.431,0.32c0.103-0.016,9.838-1.365,38.819-1.566c-0.086,0.773,0.003,1.562,0.319,2.292
		c5.839,13.447,15.85,14.899,19.883,14.899c2.024,0,3.407-0.33,3.664-0.396c1.107-0.286,2.063-0.982,2.676-1.947
		c2.801-4.417,4.752-8.953,6.114-13.254c1.973,5.93,4.364,12.137,7.058,17.267c-20.168,7.413-64.773,5.387-73.735-3.579
		c-1.758-1.758-4.606-1.757-6.364-0.001c-1.758,1.758-1.758,4.607-0.001,6.364c4.78,4.781,8.119,21.278,8.119,40.118
		c0,18.84-3.339,35.336-8.118,40.116h-0.001c-1.757,1.757-1.757,4.606,0.001,6.363c0.879,0.879,2.03,1.318,3.182,1.318
		c1.151,0,2.304-0.439,3.182-1.318c8.37-8.369,49.499-10.849,71.03-4.469C133.635,255.061,131.529,261.312,129.87,266.835z
		 M71.724,173.995c18.501,5.545,48.689,5.388,66.781,0.054c-5.109,17.493-5.365,47.1-0.337,65.51
		c0.122,0.449,0.317,0.857,0.555,1.23c-16.901-4.986-47.968-5.691-66.994-0.033C77.157,222.381,77.154,192.364,71.724,173.995z
		 M274.983,273.746c-0.786-0.338-1.67-0.446-2.509-0.308c-0.114,0.018-11.897,1.843-52.146,1.843
		c-40.247,0-52.029-1.824-52.131-1.841c-0.854-0.143-1.729-0.036-2.521,0.306c-13.528,5.832-24.307,6.152-29.96,5.725
		c2.098-8.242,6.89-25.284,12.729-34.572c8.704-13.846,8.022-38.177,7.921-40.812c0.102-2.636,0.783-26.967-7.921-40.814
		c-5.838-9.287-10.63-26.327-12.729-34.57c5.665-0.424,16.438-0.104,29.96,5.726c0.786,0.337,1.667,0.444,2.509,0.308
		c0.114-0.019,11.896-1.843,52.144-1.843c40.248,0,52.031,1.824,52.133,1.841c0.854,0.143,1.729,0.036,2.522-0.307
		c13.528-5.831,24.303-6.15,29.96-5.726c-2.097,8.239-6.884,25.272-12.728,34.571c-8.705,13.847-8.023,38.178-7.922,40.814
		c-0.102,2.636-0.783,26.967,7.922,40.812c5.845,9.299,10.64,26.369,12.734,34.6C299.339,279.941,288.639,279.633,274.983,273.746z
		 M147.379,204.086c0,0.068-0.015,0.135-0.012,0.204c0.208,4.57-0.015,15.241-2.252,24.671c-2.341-14.549-2.07-33.303,0.66-46.801
		c2.028,10.67,1.602,21.484,1.592,21.722C147.364,203.951,147.379,204.018,147.379,204.086z M293.281,204.085
		c0-0.068,0.014-0.133,0.011-0.201c-0.007-0.159-0.439-10.917,1.565-21.578c2.697,13.466,2.961,32.1,0.641,46.586
		c-2.723-11.509-2.217-24.344-2.206-24.602C293.295,204.221,293.281,204.154,293.281,204.085z M302.095,174.048
		c18.093,5.333,48.28,5.491,66.783-0.054c-5.431,18.369-5.434,48.386-0.007,66.761c-19.027-5.656-50.096-4.952-66.994,0.034
		c0.238-0.373,0.434-0.781,0.556-1.23C307.461,221.148,307.205,191.541,302.095,174.048z M396.858,170.826
		c-7.575,12.05-7.013,33.098-6.921,35.502c-0.092,2.404-0.654,23.452,6.921,35.502c4.83,7.684,8.832,21.627,10.715,28.921
		c-4.914,0.285-13.691-0.18-24.791-4.964c-0.785-0.337-1.664-0.443-2.507-0.309c-0.099,0.017-10.252,1.58-44.838,1.58
		c-8.37,0-18.189-0.092-24.648-0.223c-1.661-5.528-3.768-11.786-6.214-17.455c21.546-6.359,62.614-3.879,70.978,4.484
		c0.879,0.879,2.03,1.318,3.182,1.318c1.151,0,2.304-0.439,3.182-1.318c1.758-1.757,1.758-4.606,0.001-6.363c0,0,0,0-0.001,0
		c-4.779-4.78-8.118-21.276-8.118-40.116c0-18.84,3.339-35.337,8.119-40.118c1.757-1.758,1.757-4.606-0.001-6.364
		c-1.758-1.756-4.606-1.757-6.364,0.001c-8.956,8.958-53.495,10.992-73.688,3.598c2.697-5.133,5.092-11.348,7.066-17.283
		c1.362,4.3,3.312,8.836,6.113,13.252c0.612,0.965,1.569,1.661,2.677,1.947c0.257,0.066,1.64,0.396,3.665,0.396
		c4.033,0,14.045-1.452,19.883-14.899c0.316-0.73,0.406-1.518,0.319-2.291c28.936,0.202,38.66,1.55,38.755,1.564
		c0.83,0.123,1.672,0.012,2.438-0.319c10.982-4.734,19.829-5.206,24.783-4.935C405.68,149.237,401.682,163.152,396.858,170.826z"/>
</g>
</svg>